HIERARCHY
ROOT Hips
{
	OFFSET 0.00000 0.00000 0.00000
	CHANNELS 6 Xposition Yposition Zposition Yrotation Zrotation Xrotation 
	JOINT Lumbar
	{
		OFFSET 0 0 0
		CHANNELS 3 Zrotation Xrotation Yrotation
		JOINT Neck
		{
			OFFSET 0.00 0.2701 0.00
			CHANNELS 3 Zrotation Xrotation Yrotation
			End Site
			{
				OFFSET 0.00 0.1379 0.00
			}
		}
		JOINT RightShoulder
		{
			OFFSET 0.0119 0.2289 0.1181
			CHANNELS 3 Zrotation Xrotation Yrotation
			JOINT RightElbow
			{
				OFFSET 0.00 -0.1475 0.00
				CHANNELS 2 Zrotation Yrotation
				JOINT RightWrist
				{
					OFFSET 0.00 -0.1605 0.00
					CHANNELS 2 Zrotation Xrotation
					End Site
					{
						OFFSET 0.0040 -0.1068 0.0006
					}
				}
			}
		}
		JOINT LeftShoulder
		{
			OFFSET 0.0119 0.2289 -0.1181
			CHANNELS 3 Zrotation Xrotation Yrotation
			JOINT LeftElbow
			{
				OFFSET 0.00 -0.1475 0.00
				CHANNELS 2 Zrotation Yrotation
				JOINT LeftWrist
				{
					OFFSET 0.00 -0.1605 0.00
					CHANNELS 2 Zrotation Xrotation
					End Site
					{
						OFFSET 0.0040 -0.1068 -0.0006
					}
				}
			}
		}
	}
	JOINT RightHip
	{
		OFFSET 0.0316 -0.0424 0.0458
		CHANNELS 3 Zrotation Xrotation Yrotation
		JOINT RightKnee
		{
			OFFSET 0.00 -0.2438 0.00
			CHANNELS 1 Zrotation
			JOINT RightAnkle
			{
				OFFSET 0.00 -0.2449 0.00
				CHANNELS 3 Zrotation Xrotation Yrotation
				End Site
				{
					OFFSET 0.1237 -0.0542 0.0051
				}
			}
		}
	}
	JOINT LeftHip
	{
		OFFSET 0.0316 -0.0424 -0.0458
		CHANNELS 3 Zrotation Xrotation Yrotation
		JOINT LeftKnee
		{
			OFFSET 0.00 -0.2438 0.00
			CHANNELS 1 Zrotation
			JOINT LeftAnkle
			{
				OFFSET 0.00 -0.2449 0.00
				CHANNELS 3 Zrotation Xrotation Yrotation
				End Site
				{
					OFFSET 0.1237 -0.0542 -0.0051
				}
			}
		}
	}
}
MOTION
Frames: 11
Frame Time: 0.02
0.00096 0.00032 0.00037 -177.32538 -40.71821 -1.52258 48.08923 1.7257 -6.69648 7.32265 -1.96475 -0.81886 -22.58864 -55.69806 30.45117 86.69955 92.31712 37.03846 0.83696 11.09224 11.33959 -9.67965 51.39213 -91.24237 7.95308 -0.50136 43.51055 -1.57371 -5.80743 -19.50504 -6.50503 -2.97074 -3.66504 47.44772 4.65011 5.49956 -24.99319 -6.69867 1.61257 3.01367
0.00104 0.00032 0.00057 -177.40906 -40.64112 -1.50791 48.09686 1.78651 -6.99544 6.88891 -2.04545 -0.82186 -24.72608 -55.13602 29.28999 86.9861 91.4053 34.82633 0.48876 10.04835 11.68379 -9.75637 51.51648 -90.77519 7.46957 -0.48009 43.4175 -1.7162 -6.39594 -19.49853 -6.4953 -2.90023 -3.62973 47.35065 4.64089 5.61709 -24.9941 -6.70409 1.60164 3.01035
0.00113 0.00032 0.00077 -177.49276 -40.56425 -1.4932 48.10453 1.84727 -7.29406 6.45578 -2.12609 -0.82485 -26.85949 -54.57449 28.1303 87.27271 90.49622 32.62064 0.14157 9.00495 12.02737 -9.83212 51.6399 -90.30948 6.98745 -0.45895 43.32474 -1.85837 -6.98249 -19.49203 -6.48561 -2.82991 -3.59453 47.25383 4.6316 5.73435 -24.99502 -6.7095 1.59076 3.00704
0.00122 0.00032 0.00097 -177.57621 -40.48739 -1.47856 48.11215 1.90792 -7.59219 6.02326 -2.20658 -0.82783 -28.99076 -54.01396 26.97233 87.55852 89.58719 30.41533 -0.20554 7.96387 12.3706 -9.9085 51.76379 -89.84379 6.50547 -0.43775 43.23198 -2.00044 -7.56918 -19.48554 -6.47591 -2.75961 -3.55933 47.15705 4.6224 5.85153 -24.99593 -6.71491 1.57987 3.00372
0.0013 0.00032 0.00117 -177.65957 -40.41033 -1.46398 48.11968 1.96858 -7.89043 5.59038 -2.28704 -0.83082 -31.12507 -53.45345 25.81374 87.84396 88.67543 28.20353 -0.55371 6.92323 12.71426 -9.98607 51.88878 -89.37649 6.02201 -0.41639 43.13891 -2.1428 -8.15786 -19.47907 -6.46619 -2.68914 -3.52403 47.06004 4.61331 5.96895 -24.99682 -6.72032 1.56892 3.00039
0.00139 0.00032 0.00138 -177.74399 -40.33385 -1.44901 48.12765 2.02956 -8.18986 5.15675 -2.36805 -0.83382 -33.25645 -52.88985 24.65184 88.13303 87.77204 26.01072 -0.89884 5.87407 13.05762 -10.05798 52.00886 -88.91405 5.54265 -0.39574 43.04681 -2.28456 -8.73989 -19.4725 -6.45657 -2.61914 -3.48902 46.96361 4.6036 6.08586 -24.99778 -6.72572 1.55818 2.99713
0.00148 0.00032 0.00158 -177.82612 -40.2563 -1.43484 48.13477 2.0898 -8.48655 4.72518 -2.4479 -0.83676 -35.39133 -52.33294 23.4977 88.41434 86.85289 23.78273 -1.24954 4.84347 13.40129 -10.14131 52.13877 -88.44274 5.05595 -0.37367 42.95287 -2.42736 -9.3347 -19.46613 -6.44674 -2.54827 -3.45348 46.86613 4.59514 6.20365 -24.99861 -6.73114 1.54704 2.99373
0.00156 0.00032 0.00178 -177.91049 -40.1797 -1.41994 48.14261 2.15076 -8.78577 4.29157 -2.52877 -0.83982 -37.52309 -51.77012 22.33672 88.70306 85.9481 21.58607 -1.59538 3.79527 13.74451 -10.21392 52.25947 -87.9789 4.57535 -0.35291 42.86061 -2.5692 -9.91764 -19.45957 -6.43711 -2.4782 -3.41842 46.76959 4.58554 6.32068 -24.99956 -6.73655 1.53627 2.99046
0.00165 0.00032 0.00198 -177.99717 -40.10438 -1.40407 48.15158 2.21253 -9.0883 3.8557 -2.61114 -0.84279 -39.65197 -51.19857 21.16528 89.00013 85.06114 19.43111 -1.93435 2.72653 14.08809 -10.27405 52.36945 -87.52681 4.10462 -0.33376 42.77044 -2.70995 -10.48662 -19.4528 -6.42771 -2.40909 -3.38394 46.67429 4.57448 6.43661 -25.00066 -6.74194 1.52593 2.98734
0.00173 0.00032 0.00218 -178.06925 -40.02205 -1.39357 48.15477 2.2694 -9.37246 3.43352 -2.68564 -0.84557 -41.80032 -50.6727 20.04766 89.24703 84.0724 17.04639 -2.31008 1.77881 14.43232 -10.40785 52.54271 -87.01495 3.58433 -0.30536 42.66837 -2.85724 -11.13759 -19.44733 -6.41694 -2.33438 -3.34609 46.57212 4.57163 6.55837 -25.00091 -6.74741 1.51305 2.98331
0.00183 0.00032 0.00239 -178.17295 -39.95431 -1.37189 48.1697 2.33677 -9.69488 2.98213 -2.77622 -0.84921 -43.90529 -50.05356 18.82087 89.60104 83.29795 15.14012 -2.60996 0.57434 14.77336 -10.38511 52.58149 -86.62423 3.16404 -0.29649 42.59133 -2.99053 -11.61449 -19.43903 -6.40909 -2.27154 -3.31538 46.48425 4.55156 6.66815 -25.00294 -6.75271 1.50556 2.98124
